
<global>
amp_veltrack=0
ampeg_attack=0.01
ampeg_release=0.35
master-volume=-6
xf_cccurve=gain
xfin_hicc1=127
xfout_hicc1=127
xfout_locc1=127
</global>

<group>
group_label=Group_91-127

<region>
hivel=127
key=F6
lovel=0
offset=222
sample=Flute_effects1_FF_A#5.opus
tune=-7
</region>

<region>
hivel=127
key=G5
lovel=0
offset=4518
sample=Flute_effects1_FF_C4.opus
tune=-12
</region>

<region>
hivel=127
key=G6
lovel=0
offset=439
sample=Flute_effects1_FF_C6.opus
tune=-1
</region>

<region>
hikey=A5
hivel=127
lokey=G#5
lovel=0
offset=4759
pitch_keycenter=A5
sample=Flute_effects1_FF_D4.opus
tune=-14
</region>

<region>
hikey=C7
hivel=127
lokey=A6
lovel=0
offset=77909
pitch_keycenter=A6
sample=Flute_effects1_FF_D5.opus
tune=-6
</region>

<region>
hivel=127
key=D6
lovel=0
sample=Flute_effects1_FF_D6.opus
tune=-27
</region>

<region>
hikey=B5
hivel=127
lokey=A#5
lovel=0
offset=10394
pitch_keycenter=B5
sample=Flute_effects1_FF_E4.opus
tune=-18
</region>

<region>
hivel=127
key=G#6
lovel=0
offset=6169
sample=Flute_effects1_FF_E5.opus
tune=+7
</region>

<region>
hikey=C#6
hivel=127
lokey=C6
lovel=0
offset=368
pitch_keycenter=C#6
sample=Flute_effects1_FF_F#4.opus
tune=-7
</region>

<region>
hivel=127
key=F#6
lovel=0
offset=7480
sample=Flute_effects1_FF_F#5.opus
tune=-11
</region>

<region>
hikey=E6
hivel=127
lokey=D#6
lovel=0
offset=8604
pitch_keycenter=D#6
sample=Flute_effects1_FF_G#4.opus
tune=-6
</region>
</group>